<?xml version="1.0" encoding="UTF-8" standalone="no"?>
<!-- Created with Inkscape (http://www.inkscape.org/) -->

<svg
   xmlns:dc="http://purl.org/dc/elements/1.1/"
   xmlns:cc="http://creativecommons.org/ns#"
   xmlns:rdf="http://www.w3.org/1999/02/22-rdf-syntax-ns#"
   xmlns:svg="http://www.w3.org/2000/svg"
   xmlns="http://www.w3.org/2000/svg"
   xmlns:sodipodi="http://sodipodi.sourceforge.net/DTD/sodipodi-0.dtd"
   xmlns:inkscape="http://www.inkscape.org/namespaces/inkscape"
   width="187.6781mm"
   height="75.942574mm"
   viewBox="0 0 665.00114 269.08786"
   id="svg5480"
   version="1.1"
   inkscape:version="0.91 r13725"
   sodipodi:docname="IconExport.svg">
  <defs
     id="defs5482" />
  <sodipodi:namedview
     id="base"
     pagecolor="#ffffff"
     bordercolor="#666666"
     borderopacity="1.0"
     inkscape:pageopacity="0.0"
     inkscape:pageshadow="2"
     inkscape:zoom="1.2410176"
     inkscape:cx="176.76728"
     inkscape:cy="-65.815165"
     inkscape:document-units="px"
     inkscape:current-layer="layer1"
     showgrid="false"
     inkscape:window-width="1798"
     inkscape:window-height="1473"
     inkscape:window-x="54"
     inkscape:window-y="65"
     inkscape:window-maximized="0"
     fit-margin-top="0"
     fit-margin-left="0"
     fit-margin-right="0"
     fit-margin-bottom="0" />
  <metadata
     id="metadata5485">
    <rdf:RDF>
      <cc:Work
         rdf:about="">
        <dc:format>image/svg+xml</dc:format>
        <dc:type
           rdf:resource="http://purl.org/dc/dcmitype/StillImage" />
        <dc:title></dc:title>
      </cc:Work>
    </rdf:RDF>
  </metadata>
  <g
     inkscape:label="Layer 1"
     inkscape:groupmode="layer"
     id="layer1"
     transform="translate(-22.035033,-191.27809)">
    <path
       style="color:#000000;clip-rule:nonzero;display:inline;overflow:visible;visibility:visible;opacity:1;isolation:auto;mix-blend-mode:normal;color-interpolation:sRGB;color-interpolation-filters:linearRGB;solid-color:#000000;solid-opacity:1;fill:#000000;fill-opacity:1;fill-rule:evenodd;stroke:#000000;stroke-width:0.87056261px;stroke-linecap:butt;stroke-linejoin:miter;stroke-miterlimit:4;stroke-dasharray:none;stroke-dashoffset:0;stroke-opacity:1;color-rendering:auto;image-rendering:auto;shape-rendering:auto;text-rendering:auto;enable-background:accumulate"
       d="m 79.279297,247.31445 -17.503906,52.57422 -15.914063,0 c 10.618734,64.54023 31.182353,94.90165 45.72461,108.82617 46.792392,5.56361 76.824222,-40.47265 76.824222,-40.47265 71.71534,93.47169 128.92773,4.83398 128.92773,4.83398 79.77325,87.02536 139.40039,0 139.40039,0 73.32693,91.05431 135.37305,-1.61133 135.37305,-1.61133 5.07172,6.2273 10.0708,11.40079 14.97851,15.66797 106.77758,-68.07174 72.18164,-94.04883 72.18164,-94.04883 l -98.65429,-1.23632 -28.64258,46.38867 -326.19727,1.23828 -26.2539,-41.44141 22.27734,0 -21.48047,-50.71875 z m 494.863283,58.6543 c 5.78618,2.8e-4 11.28239,3.50847 11.28235,7.83594 4e-5,4.32746 -5.49617,7.83565 -11.28235,7.83593 -5.78694,5.3e-4 -10.47856,-3.5079 -10.47852,-7.83593 -4e-5,-4.32804 4.69157,-7.83647 10.47852,-7.83594 z"
       id="path5488"
       inkscape:connector-curvature="0"
       sodipodi:nodetypes="cccccccccccccccccccccc" />
    <rect
       style="opacity:1;fill:#000000;fill-opacity:1;fill-rule:evenodd;stroke:#000000;stroke-width:1;stroke-miterlimit:4;stroke-dasharray:none;stroke-dashoffset:0;stroke-opacity:1"
       id="rect5508"
       width="145.04227"
       height="62.045856"
       x="224.00972"
       y="265.9108" />
    <rect
       y="265.9108"
       x="380.33304"
       height="62.045856"
       width="145.04227"
       id="rect5510"
       style="opacity:1;fill:#000000;fill-opacity:1;fill-rule:evenodd;stroke:#000000;stroke-width:1;stroke-miterlimit:4;stroke-dasharray:none;stroke-dashoffset:0;stroke-opacity:1" />
    <rect
       style="opacity:1;fill:#000000;fill-opacity:1;fill-rule:evenodd;stroke:#000000;stroke-width:1;stroke-miterlimit:4;stroke-dasharray:none;stroke-dashoffset:0;stroke-opacity:1"
       id="rect5512"
       width="145.04227"
       height="62.045856"
       x="320.70453"
       y="191.77809" />
    <path
       style="color:#000000;clip-rule:nonzero;display:inline;overflow:visible;visibility:visible;opacity:1;isolation:auto;mix-blend-mode:normal;color-interpolation:sRGB;color-interpolation-filters:linearRGB;solid-color:#000000;solid-opacity:1;fill:#000000;fill-opacity:1;fill-rule:evenodd;stroke:#000000;stroke-width:1px;stroke-linecap:butt;stroke-linejoin:miter;stroke-miterlimit:4;stroke-dasharray:none;stroke-dashoffset:0;stroke-opacity:1;color-rendering:auto;image-rendering:auto;shape-rendering:auto;text-rendering:auto;enable-background:accumulate"
       d="m 685.72666,370.6599 c 0,0 -52.37577,86.2183 -116.03321,8.05664 0,0 -62.04611,92.66564 -135.37304,1.61133 0,0 -59.62714,87.02536 -139.40039,0 0,0 -57.2124,88.63771 -128.92774,-4.83398 0,0 -60.43328,92.66504 -143.429687,-0.80664 l 0.804687,39.48437 c 82.99641,93.47168 143.43164,0.80664 143.43164,0.80664 71.71534,93.47169 128.92578,4.83399 128.92578,4.83399 79.77325,87.02536 139.40235,0 139.40235,0 73.32693,91.05431 135.37304,-1.61133 135.37304,-1.61133 63.65744,78.16166 116.03321,-8.05859 116.03321,-8.05859 l -0.80664,-39.48243 z"
       id="path5516"
       inkscape:connector-curvature="0" />
  </g>
</svg>
