<?xml version="1.0" encoding="UTF-8" standalone="no"?>
<!-- Created with Inkscape (http://www.inkscape.org/) -->

<svg
   xmlns:dc="http://purl.org/dc/elements/1.1/"
   xmlns:cc="http://creativecommons.org/ns#"
   xmlns:rdf="http://www.w3.org/1999/02/22-rdf-syntax-ns#"
   xmlns:svg="http://www.w3.org/2000/svg"
   xmlns="http://www.w3.org/2000/svg"
   xmlns:sodipodi="http://sodipodi.sourceforge.net/DTD/sodipodi-0.dtd"
   xmlns:inkscape="http://www.inkscape.org/namespaces/inkscape"
   width="103.42341mm"
   height="102.05894mm"
   viewBox="0 0 366.4609 361.62615"
   id="svg5874"
   version="1.1"
   inkscape:version="0.91 r13725"
   sodipodi:docname="IconSettings.svg">
  <defs
     id="defs5876" />
  <sodipodi:namedview
     id="base"
     pagecolor="#ffffff"
     bordercolor="#666666"
     borderopacity="1.0"
     inkscape:pageopacity="0.0"
     inkscape:pageshadow="2"
     inkscape:zoom="1.2410176"
     inkscape:cx="29.499486"
     inkscape:cy="-133.04205"
     inkscape:document-units="px"
     inkscape:current-layer="layer1"
     showgrid="false"
     inkscape:window-width="1798"
     inkscape:window-height="1473"
     inkscape:window-x="54"
     inkscape:window-y="65"
     inkscape:window-maximized="0"
     fit-margin-top="0"
     fit-margin-left="0"
     fit-margin-right="0"
     fit-margin-bottom="0" />
  <metadata
     id="metadata5879">
    <rdf:RDF>
      <cc:Work
         rdf:about="">
        <dc:format>image/svg+xml</dc:format>
        <dc:type
           rdf:resource="http://purl.org/dc/dcmitype/StillImage" />
        <dc:title></dc:title>
      </cc:Work>
    </rdf:RDF>
  </metadata>
  <g
     inkscape:label="Layer 1"
     inkscape:groupmode="layer"
     id="layer1"
     transform="translate(-169.30283,-31.512885)">
    <g
       id="g5884"
       transform="matrix(15.269204,0,0,15.067757,169.30283,31.512885)">
      <path
         id="path5886"
         d="M 0,0 24,0 24,24 0,24 0,0 Z"
         inkscape:connector-curvature="0"
         style="fill:none" />
      <path
         id="path5888"
         d="m 19.14,12.94 c 0.04,-0.3 0.06,-0.61 0.06,-0.94 0,-0.32 -0.02,-0.64 -0.07,-0.94 L 21.16,9.48 C 21.34,9.34 21.39,9.07 21.28,8.87 L 19.36,5.55 C 19.24,5.33 18.99,5.26 18.77,5.33 L 16.38,6.29 C 15.88,5.91 15.35,5.59 14.76,5.35 L 14.4,2.81 C 14.36,2.57 14.16,2.4 13.92,2.4 l -3.84,0 C 9.84,2.4 9.65,2.57 9.61,2.81 L 9.25,5.35 C 8.66,5.59 8.12,5.92 7.63,6.29 L 5.24,5.33 C 5.02,5.25 4.77,5.33 4.65,5.55 L 2.74,8.87 C 2.62,9.08 2.66,9.34 2.86,9.48 l 2.03,1.58 C 4.84,11.36 4.8,11.69 4.8,12 c 0,0.31 0.02,0.64 0.07,0.94 l -2.03,1.58 c -0.18,0.14 -0.23,0.41 -0.12,0.61 l 1.92,3.32 c 0.12,0.22 0.37,0.29 0.59,0.22 l 2.39,-0.96 c 0.5,0.38 1.03,0.7 1.62,0.94 l 0.36,2.54 c 0.05,0.24 0.24,0.41 0.48,0.41 l 3.84,0 c 0.24,0 0.44,-0.17 0.47,-0.41 l 0.36,-2.54 c 0.59,-0.24 1.13,-0.56 1.62,-0.94 l 2.39,0.96 c 0.22,0.08 0.47,0 0.59,-0.22 l 1.92,-3.32 c 0.12,-0.22 0.07,-0.47 -0.12,-0.61 L 19.14,12.94 Z M 12,15.6 c -1.98,0 -3.6,-1.62 -3.6,-3.6 0,-1.98 1.62,-3.6 3.6,-3.6 1.98,0 3.6,1.62 3.6,3.6 0,1.98 -1.62,3.6 -3.6,3.6 z"
         inkscape:connector-curvature="0" />
    </g>
  </g>
</svg>
