<?xml version="1.0" encoding="UTF-8" standalone="no"?>
<!-- Created with Inkscape (http://www.inkscape.org/) -->

<svg
   xmlns:dc="http://purl.org/dc/elements/1.1/"
   xmlns:cc="http://creativecommons.org/ns#"
   xmlns:rdf="http://www.w3.org/1999/02/22-rdf-syntax-ns#"
   xmlns:svg="http://www.w3.org/2000/svg"
   xmlns="http://www.w3.org/2000/svg"
   xmlns:sodipodi="http://sodipodi.sourceforge.net/DTD/sodipodi-0.dtd"
   xmlns:inkscape="http://www.inkscape.org/namespaces/inkscape"
   width="210mm"
   height="297mm"
   viewBox="0 0 744.09448819 1052.3622047"
   id="svg2"
   version="1.1"
   inkscape:version="0.91 r13725"
   sodipodi:docname="Cell.svg">
  <defs
     id="defs4" />
  <sodipodi:namedview
     id="base"
     pagecolor="#ffffff"
     bordercolor="#666666"
     borderopacity="1.0"
     inkscape:pageopacity="0.0"
     inkscape:pageshadow="2"
     inkscape:zoom="1.1960847"
     inkscape:cx="372.04724"
     inkscape:cy="526.1811"
     inkscape:document-units="px"
     inkscape:current-layer="layer1"
     showgrid="false"
     inkscape:window-width="1080"
     inkscape:window-height="1857"
     inkscape:window-x="-8"
     inkscape:window-y="-8"
     inkscape:window-maximized="1" />
  <metadata
     id="metadata7">
    <rdf:RDF>
      <cc:Work
         rdf:about="">
        <dc:format>image/svg+xml</dc:format>
        <dc:type
           rdf:resource="http://purl.org/dc/dcmitype/StillImage" />
        <dc:title></dc:title>
      </cc:Work>
    </rdf:RDF>
  </metadata>
  <g
     inkscape:label="Layer 1"
     inkscape:groupmode="layer"
     id="layer1">
    <path
       style="color:#000000;clip-rule:nonzero;display:inline;overflow:visible;visibility:visible;opacity:1;isolation:auto;mix-blend-mode:normal;color-interpolation:sRGB;color-interpolation-filters:linearRGB;solid-color:#000000;solid-opacity:1;fill:none;fill-opacity:1;fill-rule:evenodd;stroke:#cb2838;stroke-width:5.4;stroke-linecap:butt;stroke-linejoin:miter;stroke-miterlimit:4;stroke-dasharray:none;stroke-dashoffset:0;stroke-opacity:1;color-rendering:auto;image-rendering:auto;shape-rendering:auto;text-rendering:auto;enable-background:accumulate"
       d="m 51.835796,202.08794 c 22.573653,-82.77006 34.27851,-96.14704 81.933994,-96.14704 47.65549,0 378.73574,-15.885163 408.83394,13.37698 30.09821,29.26214 67.72096,120.39282 73.57339,150.49102 5.85243,30.0982 -7.52455,172.22861 -32.60639,195.63833 -25.08183,23.40971 -210.46834,33.98426 -297.63779,56.0161 C 209.85137,540.69274 74.409448,522.29939 53.507918,489.693 35.460161,461.5385 51.835796,202.08794 51.835796,202.08794 Z"
       id="path4136"
       inkscape:connector-curvature="0"
       sodipodi:nodetypes="cssssssc" />
    <path
       style="fill:none;fill-rule:evenodd;stroke:#175f31;stroke-width:1.5;stroke-linecap:butt;stroke-linejoin:miter;stroke-miterlimit:4;stroke-dasharray:none;stroke-opacity:1"
       d="M 76.081571,231.35008 C 146.54927,227.07651 252.12851,160.27901 314.35902,135.20304"
       id="path4138"
       inkscape:connector-curvature="0"
       sodipodi:nodetypes="cc" />
    <path
       style="fill:none;fill-rule:evenodd;stroke:#175f31;stroke-width:1.5;stroke-linecap:butt;stroke-linejoin:miter;stroke-miterlimit:4;stroke-dasharray:none;stroke-opacity:1"
       d="M 65.212775,255.59586 C 146.54389,224.22885 293.55805,201.1228 349.47359,139.38335"
       id="path4140"
       inkscape:connector-curvature="0"
       sodipodi:nodetypes="cc" />
    <path
       style="fill:none;fill-rule:evenodd;stroke:#175f31;stroke-width:1.5;stroke-linecap:butt;stroke-linejoin:miter;stroke-miterlimit:4;stroke-dasharray:none;stroke-opacity:1"
       d="M 81.933999,269.8089 C 189.76766,238.51547 297.83274,231.53605 379.5718,144.39972"
       id="path4142"
       inkscape:connector-curvature="0"
       sodipodi:nodetypes="cc" />
    <path
       style="fill:none;fill-rule:evenodd;stroke:#175f31;stroke-width:1.5;stroke-linecap:butt;stroke-linejoin:miter;stroke-miterlimit:4;stroke-dasharray:none;stroke-opacity:1"
       d="m 75.24551,222.98947 c 65.23495,-4.62624 171.46247,-63.69745 223.22835,-100.32734"
       id="path4144"
       inkscape:connector-curvature="0"
       sodipodi:nodetypes="cc" />
    <path
       style="fill:none;fill-rule:evenodd;stroke:#175f31;stroke-width:1.5;stroke-linecap:butt;stroke-linejoin:miter;stroke-miterlimit:4;stroke-dasharray:none;stroke-opacity:1"
       d="M 68.557021,238.87463 C 159.52369,227.1504 248.45284,185.25225 325.22782,134.36698"
       id="path4146"
       inkscape:connector-curvature="0"
       sodipodi:nodetypes="cc" />
    <path
       style="fill:none;fill-rule:evenodd;stroke:#175f31;stroke-width:1.5;stroke-linecap:butt;stroke-linejoin:miter;stroke-miterlimit:4;stroke-dasharray:none;stroke-opacity:1"
       d="M 76.081571,255.59586 C 174.86962,220.62986 287.95608,239.27435 357.8342,143.56366"
       id="path4148"
       inkscape:connector-curvature="0"
       sodipodi:nodetypes="cc" />
    <path
       style="fill:none;fill-rule:evenodd;stroke:#175f31;stroke-width:1.5;stroke-linecap:butt;stroke-linejoin:miter;stroke-miterlimit:4;stroke-dasharray:none;stroke-opacity:1"
       d="M 53.507918,405.25082 C 215.62287,382.82422 364.958,282.86469 482.40733,175.33398"
       id="path4150"
       inkscape:connector-curvature="0"
       sodipodi:nodetypes="cc" />
    <path
       style="fill:none;fill-rule:evenodd;stroke:#175f31;stroke-width:1.5;stroke-linecap:butt;stroke-linejoin:miter;stroke-miterlimit:4;stroke-dasharray:none;stroke-opacity:1"
       d="M 58.524286,416.11961 C 208.62215,417.51524 304.67569,358.69252 441.79414,242.15473 l 58.17047,-47.59134"
       id="path4152"
       inkscape:connector-curvature="0"
       sodipodi:nodetypes="ccc" />
    <path
       style="fill:none;fill-rule:evenodd;stroke:#175f31;stroke-width:1.5;stroke-linecap:butt;stroke-linejoin:miter;stroke-miterlimit:4;stroke-dasharray:none;stroke-opacity:1"
       d="M 66.048837,455.41449 C 227.98779,412.85075 446.71489,383.67684 528.3907,211.28461"
       id="path4154"
       inkscape:connector-curvature="0"
       sodipodi:nodetypes="cc" />
    <path
       style="fill:none;fill-rule:evenodd;stroke:#175f31;stroke-width:1.5;stroke-linecap:butt;stroke-linejoin:miter;stroke-miterlimit:4;stroke-dasharray:none;stroke-opacity:1"
       d="M 499.96461,176.17004 C 379.2392,292.99776 224.33395,392.75231 56.016102,410.26719"
       id="path4156"
       inkscape:connector-curvature="0"
       sodipodi:nodetypes="cc" />
    <path
       style="fill:none;fill-rule:evenodd;stroke:#175f31;stroke-width:1.5;stroke-linecap:butt;stroke-linejoin:miter;stroke-miterlimit:4;stroke-dasharray:none;stroke-opacity:1"
       d="M 66.048837,462.93904 C 234.06306,427.5135 454.39168,398.06933 530.89888,218.80917"
       id="path4158"
       inkscape:connector-curvature="0"
       sodipodi:nodetypes="cc" />
    <path
       style="fill:none;fill-rule:evenodd;stroke:#175f31;stroke-width:1.5;stroke-linecap:butt;stroke-linejoin:miter;stroke-miterlimit:4;stroke-dasharray:none;stroke-opacity:1"
       d="M 75.24551,390.20172 C 182.25161,308.53663 312.40195,247.99921 397.12908,139.38335"
       id="path4160"
       inkscape:connector-curvature="0"
       sodipodi:nodetypes="cc" />
    <path
       style="fill:none;fill-rule:evenodd;stroke:#175f31;stroke-width:1.5;stroke-linecap:butt;stroke-linejoin:miter;stroke-miterlimit:4;stroke-dasharray:none;stroke-opacity:1"
       d="M 89.458551,391.87384 C 208.45682,311.88802 329.9692,241.07509 424.7191,136.87517"
       id="path4162"
       inkscape:connector-curvature="0"
       sodipodi:nodetypes="cc" />
    <path
       style="fill:none;fill-rule:evenodd;stroke:#175f31;stroke-width:1.5;stroke-linecap:butt;stroke-linejoin:miter;stroke-miterlimit:4;stroke-dasharray:none;stroke-opacity:1"
       d="M 62.704592,382.67717 C 163.5239,271.87775 319.7566,257.04916 394.6209,128.51455"
       id="path4164"
       inkscape:connector-curvature="0"
       sodipodi:nodetypes="cc" />
    <g
       id="g4230"
       transform="matrix(0.25886218,0,0,0.2027468,378.19742,257.01946)"
       style="stroke:#db9d71;stroke-opacity:1;stroke-width:10.16618907;stroke-miterlimit:4;stroke-dasharray:none">
      <path
         sodipodi:nodetypes="zszz"
         inkscape:connector-curvature="0"
         id="path4208"
         d="M 233.35308,730.88238 C 80.183548,739.8537 -154.8696,944.9518 188.73801,970.85118 534.81456,996.93662 713.66349,441.27345 549.09223,374.51728 384.52095,307.7611 386.52262,721.91105 233.35308,730.88238 Z"
         style="fill:none;fill-rule:evenodd;stroke:#db9d71;stroke-width:10.16618907;stroke-linecap:butt;stroke-linejoin:miter;stroke-opacity:1;stroke-miterlimit:4;stroke-dasharray:none" />
      <path
         sodipodi:nodetypes="sssssssssssssssssssssssssss"
         inkscape:connector-curvature="0"
         id="path4227"
         d="m 347.80147,654.39707 c 15.53094,-22.14939 64.43281,32.47857 75.24551,5.85242 12.74238,-31.37799 -58.15479,-38.47976 -43.51907,-75.1248 13.72686,-34.3694 64.3091,18.73541 80.30577,-5.13707 25.738,-38.40986 -62.878,-40.53171 -50.99975,-71.90127 18.00721,-47.55567 109.93898,-4.68041 67.72097,-51.8358 -29.05259,-32.45028 14.45757,-89.37589 49.32761,-68.55702 34.93451,20.85736 -14.18358,96.41789 -4.14747,118.15564 0,0 3.90261,33.20924 53.47508,-11.97586 21.62141,-19.70783 25.24788,52.33567 15.0491,90.29461 -19.74336,73.48299 -67.07676,12.17624 -81.934,46.81943 -10.68443,24.91329 45.90074,63.16264 13.37699,119.55675 -16.00085,27.74446 -79.52989,-34.05157 -97.81917,-11.70486 -14.54679,17.77396 49.86507,127.36986 2.50818,115.37645 -22.56266,-5.71413 -51.21154,-84.11239 -65.21277,-35.95063 -12.9532,44.55673 48.76035,69.01091 -24.24578,103.67159 -40.37678,19.16945 -29.24826,-94.45071 -79.42581,-61.03247 -45.04456,29.99967 9.49682,97.47806 -65.21278,95.31098 -28.4865,-0.82629 -10.09039,-108.91363 -62.70459,-59.36034 -20.73069,19.52464 -74.684994,41.0942 -92.802796,6.68849 -21.026705,-39.92972 18.496589,-94.11596 47.655489,-60.19642 20.483497,23.82775 79.026097,-7.51616 53.296327,-25.6876 -26.95478,-19.03659 14.83923,-52.73444 32.81798,-55.41034 35.95751,-5.35181 71.99952,113.80997 93.63886,50.16369 12.01268,-35.33207 -23.02861,-61.08738 10.03273,-80.26188 27.26896,-15.81511 56.81048,74.57437 86.11431,30.93426 20.06366,-29.87939 -39.71396,-69.93524 -12.54092,-108.68795 z"
         style="fill:none;fill-rule:evenodd;stroke:#db9d71;stroke-width:10.16618907;stroke-linecap:butt;stroke-linejoin:miter;stroke-opacity:1;stroke-miterlimit:4;stroke-dasharray:none" />
    </g>
  </g>
</svg>
