<?xml version="1.0" encoding="UTF-8" standalone="no"?>
<!-- Created with Inkscape (http://www.inkscape.org/) -->

<svg
   xmlns:dc="http://purl.org/dc/elements/1.1/"
   xmlns:cc="http://creativecommons.org/ns#"
   xmlns:rdf="http://www.w3.org/1999/02/22-rdf-syntax-ns#"
   xmlns:svg="http://www.w3.org/2000/svg"
   xmlns="http://www.w3.org/2000/svg"
   xmlns:sodipodi="http://sodipodi.sourceforge.net/DTD/sodipodi-0.dtd"
   xmlns:inkscape="http://www.inkscape.org/namespaces/inkscape"
   width="164.4623mm"
   height="164.4623mm"
   viewBox="0 0 582.74042 582.74041"
   id="svg2"
   version="1.1"
   inkscape:version="0.91 r13725"
   sodipodi:docname="IconMisc.svg">
  <defs
     id="defs4" />
  <sodipodi:namedview
     id="base"
     pagecolor="#ffffff"
     bordercolor="#666666"
     borderopacity="1.0"
     inkscape:pageopacity="0.0"
     inkscape:pageshadow="2"
     inkscape:zoom="1.1960847"
     inkscape:cx="142.20954"
     inkscape:cy="75.066103"
     inkscape:document-units="px"
     inkscape:current-layer="layer1"
     showgrid="false"
     inkscape:window-width="1798"
     inkscape:window-height="1473"
     inkscape:window-x="176"
     inkscape:window-y="128"
     inkscape:window-maximized="0"
     fit-margin-top="0"
     fit-margin-left="0"
     fit-margin-right="0"
     fit-margin-bottom="0" />
  <metadata
     id="metadata7">
    <rdf:RDF>
      <cc:Work
         rdf:about="">
        <dc:format>image/svg+xml</dc:format>
        <dc:type
           rdf:resource="http://purl.org/dc/dcmitype/StillImage" />
        <dc:title></dc:title>
      </cc:Work>
    </rdf:RDF>
  </metadata>
  <g
     inkscape:label="Layer 1"
     inkscape:groupmode="layer"
     id="layer1"
     transform="translate(-56.389326,-152.27657)">
    <g
       id="g5422">
      <path
         inkscape:transform-center-y="-134.57696"
         inkscape:transform-center-x="176.60346"
         inkscape:tile-y0="140.02413"
         inkscape:tile-x0="36.17884"
         sodipodi:nodetypes="czczc"
         inkscape:connector-curvature="0"
         id="use5342"
         d="m 126.34539,252.87409 c 35.32408,51.21839 32.90358,57.70445 45.99768,56.33335 13.09411,-1.37112 27.21894,43.04944 43.62369,56.05812 -28.34198,-12.63362 -25.93044,-39.41784 -42.10844,-32.19556 -16.17801,7.22232 -18.7725,-18.11611 -47.51293,-80.19591 z"
         style="fill:#000000;fill-opacity:1;fill-rule:evenodd;stroke:#000000;stroke-width:0.44755509px;stroke-linecap:butt;stroke-linejoin:miter;stroke-opacity:1" />
      <path
         inkscape:transform-center-y="-134.57696"
         inkscape:transform-center-x="176.60346"
         inkscape:tile-y0="140.02413"
         inkscape:tile-x0="36.17884"
         sodipodi:nodetypes="czczc"
         inkscape:connector-curvature="0"
         id="use5344"
         d="m 196.13418,193.79044 c 17.76784,59.62732 13.46151,65.04795 26.33843,67.79026 12.87694,2.74229 12.58374,49.35357 24.16568,66.7949 -23.05082,-20.77344 -12.48053,-45.50154 -30.09853,-43.63202 -17.61802,1.86956 -12.25552,-23.03046 -20.40558,-90.95314 z"
         style="fill:#000000;fill-opacity:1;fill-rule:evenodd;stroke:#000000;stroke-width:0.44755509px;stroke-linecap:butt;stroke-linejoin:miter;stroke-opacity:1" />
      <path
         inkscape:transform-center-y="-134.57696"
         inkscape:transform-center-x="176.60346"
         inkscape:tile-y0="140.02413"
         inkscape:tile-x0="36.17884"
         sodipodi:nodetypes="czczc"
         inkscape:connector-curvature="0"
         id="use5346"
         d="m 280.76511,159.16446 c -1.52764,62.19952 -7.29827,66.02412 4.10099,72.6114 11.39928,6.58726 -3.28324,50.82662 2.34217,70.99333 -15.50329,-26.87981 2.19106,-47.13123 -15.14237,-50.79747 -17.33346,-3.66622 -4.53889,-25.69044 8.69921,-92.80726 z"
         style="fill:#000000;fill-opacity:1;fill-rule:evenodd;stroke:#000000;stroke-width:0.44755509px;stroke-linecap:butt;stroke-linejoin:miter;stroke-opacity:1" />
      <path
         inkscape:transform-center-y="-134.57696"
         inkscape:transform-center-x="176.60346"
         inkscape:tile-y0="140.02413"
         inkscape:tile-x0="36.17884"
         sodipodi:nodetypes="czczc"
         inkscape:connector-curvature="0"
         id="use5348"
         d="m 371.95392,152.3856 c -20.67357,58.6832 -27.34364,60.53738 -18.53787,70.32482 8.80578,9.78743 -18.82884,47.32441 -19.71062,68.24244 -6.43818,-30.355 16.64818,-44.14739 1.29604,-52.99052 -15.35217,-8.84311 3.62204,-25.83565 36.95245,-85.57674 z"
         style="fill:#000000;fill-opacity:1;fill-rule:evenodd;stroke:#000000;stroke-width:0.44755509px;stroke-linecap:butt;stroke-linejoin:miter;stroke-opacity:1" />
      <path
         inkscape:transform-center-y="-134.57696"
         inkscape:transform-center-x="176.60346"
         inkscape:tile-y0="140.02413"
         inkscape:tile-x0="36.17884"
         sodipodi:nodetypes="czczc"
         inkscape:connector-curvature="0"
         id="use5350"
         d="m 460.77442,174.11741 c -37.79585,49.42255 -44.71243,49.12482 -39.36214,61.15436 5.35031,12.02954 -32.53134,39.18976 -39.83398,58.81151 3.25713,-30.85883 29.47565,-36.8421 17.60757,-49.99648 -11.86811,-13.15439 11.42843,-23.4519 61.58855,-69.96939 z"
         style="fill:#000000;fill-opacity:1;fill-rule:evenodd;stroke:#000000;stroke-width:0.44755509px;stroke-linecap:butt;stroke-linejoin:miter;stroke-opacity:1" />
      <path
         inkscape:transform-center-y="-134.57696"
         inkscape:transform-center-x="176.60346"
         inkscape:tile-y0="140.02413"
         inkscape:tile-x0="36.17884"
         sodipodi:nodetypes="czczc"
         inkscape:connector-curvature="0"
         id="use5352"
         d="m 538.53223,222.23264 c -51.21839,35.32408 -57.70445,32.90358 -56.33335,45.99768 1.37112,13.09411 -43.04944,27.21894 -56.05812,43.62369 12.63362,-28.34198 39.41784,-25.93044 32.19556,-42.10844 -7.22232,-16.17801 18.11611,-18.7725 80.19591,-47.51293 z"
         style="fill:#000000;fill-opacity:1;fill-rule:evenodd;stroke:#000000;stroke-width:0.44755509px;stroke-linecap:butt;stroke-linejoin:miter;stroke-opacity:1" />
      <path
         inkscape:transform-center-y="-134.57696"
         inkscape:transform-center-x="176.60346"
         inkscape:tile-y0="140.02413"
         inkscape:tile-x0="36.17884"
         sodipodi:nodetypes="czczc"
         inkscape:connector-curvature="0"
         id="use5354"
         d="m 597.61589,292.02143 c -59.62733,17.76784 -65.04796,13.46151 -67.79027,26.33843 -2.74229,12.87694 -49.35356,12.58374 -66.7949,24.16568 20.77344,-23.05082 45.50154,-12.48053 43.63202,-30.09853 -1.86955,-17.61802 23.03047,-12.25552 90.95315,-20.40558 z"
         style="fill:#000000;fill-opacity:1;fill-rule:evenodd;stroke:#000000;stroke-width:0.44755509px;stroke-linecap:butt;stroke-linejoin:miter;stroke-opacity:1" />
      <path
         inkscape:transform-center-y="-134.57696"
         inkscape:transform-center-x="176.60346"
         inkscape:tile-y0="140.02413"
         inkscape:tile-x0="36.17884"
         sodipodi:nodetypes="czczc"
         inkscape:connector-curvature="0"
         id="use5356"
         d="m 632.24185,376.65236 c -62.19952,-1.52764 -66.02412,-7.29827 -72.61139,4.10099 -6.58727,11.39928 -50.82662,-3.28324 -70.99333,2.34217 26.87981,-15.50329 47.13123,2.19106 50.79747,-15.14237 3.66622,-17.33346 25.69044,-4.53889 92.80725,8.69921 z"
         style="fill:#000000;fill-opacity:1;fill-rule:evenodd;stroke:#000000;stroke-width:0.44755509px;stroke-linecap:butt;stroke-linejoin:miter;stroke-opacity:1" />
      <path
         inkscape:transform-center-y="-134.57696"
         inkscape:transform-center-x="176.60346"
         inkscape:tile-y0="140.02413"
         inkscape:tile-x0="36.17884"
         sodipodi:nodetypes="czczc"
         inkscape:connector-curvature="0"
         id="use5358"
         d="m 639.02072,467.84116 c -58.6832,-20.67357 -60.53738,-27.34364 -70.32482,-18.53787 -9.78743,8.80578 -47.32441,-18.82884 -68.24244,-19.71062 30.355,-6.43818 44.14739,16.64818 52.99052,1.29604 8.84311,-15.35217 25.83565,3.62204 85.57674,36.95245 z"
         style="fill:#000000;fill-opacity:1;fill-rule:evenodd;stroke:#000000;stroke-width:0.44755509px;stroke-linecap:butt;stroke-linejoin:miter;stroke-opacity:1" />
      <path
         inkscape:transform-center-y="-134.57696"
         inkscape:transform-center-x="176.60346"
         inkscape:tile-y0="140.02413"
         inkscape:tile-x0="36.17884"
         sodipodi:nodetypes="czczc"
         inkscape:connector-curvature="0"
         id="use5360"
         d="m 617.28891,556.66167 c -49.42255,-37.79585 -49.12482,-44.71243 -61.15436,-39.36214 -12.02953,5.35031 -39.18975,-32.53134 -58.8115,-39.83398 30.85883,3.25713 36.8421,29.47565 49.99648,17.60757 13.15438,-11.86811 23.45189,11.42843 69.96938,61.58855 z"
         style="fill:#000000;fill-opacity:1;fill-rule:evenodd;stroke:#000000;stroke-width:0.44755509px;stroke-linecap:butt;stroke-linejoin:miter;stroke-opacity:1" />
      <path
         inkscape:transform-center-y="-134.57696"
         inkscape:transform-center-x="176.60346"
         inkscape:tile-y0="140.02413"
         inkscape:tile-x0="36.17884"
         sodipodi:nodetypes="czczc"
         inkscape:connector-curvature="0"
         id="use5362"
         d="M 569.17368,634.41948 C 533.8496,583.20109 536.2701,576.71503 523.176,578.08613 c -13.09411,1.37112 -27.21894,-43.04944 -43.62369,-56.05812 28.34198,12.63362 25.93044,39.41784 42.10844,32.19556 16.17801,-7.22232 18.7725,18.11611 47.51293,80.19591 z"
         style="fill:#000000;fill-opacity:1;fill-rule:evenodd;stroke:#000000;stroke-width:0.44755509px;stroke-linecap:butt;stroke-linejoin:miter;stroke-opacity:1" />
      <path
         inkscape:transform-center-y="-134.57696"
         inkscape:transform-center-x="176.60346"
         inkscape:tile-y0="140.02413"
         inkscape:tile-x0="36.17884"
         sodipodi:nodetypes="czczc"
         inkscape:connector-curvature="0"
         id="use5364"
         d="m 499.38489,693.50313 c -17.76784,-59.62733 -13.46151,-65.04796 -26.33843,-67.79027 -12.87694,-2.74229 -12.58374,-49.35356 -24.16568,-66.7949 23.05082,20.77344 12.48053,45.50154 30.09853,43.63202 17.61802,-1.86955 12.25552,23.03047 20.40558,90.95315 z"
         style="fill:#000000;fill-opacity:1;fill-rule:evenodd;stroke:#000000;stroke-width:0.44755509px;stroke-linecap:butt;stroke-linejoin:miter;stroke-opacity:1" />
      <path
         inkscape:transform-center-y="-134.57696"
         inkscape:transform-center-x="176.60346"
         inkscape:tile-y0="140.02413"
         inkscape:tile-x0="36.17884"
         sodipodi:nodetypes="czczc"
         inkscape:connector-curvature="0"
         id="use5366"
         d="m 414.75396,728.1291 c 1.52764,-62.19952 7.29827,-66.02412 -4.10099,-72.61139 -11.39928,-6.58727 3.28324,-50.82662 -2.34217,-70.99333 15.50329,26.87981 -2.19106,47.13123 15.14237,50.79747 17.33346,3.66622 4.53889,25.69044 -8.69921,92.80725 z"
         style="fill:#000000;fill-opacity:1;fill-rule:evenodd;stroke:#000000;stroke-width:0.44755509px;stroke-linecap:butt;stroke-linejoin:miter;stroke-opacity:1" />
      <path
         inkscape:transform-center-y="-134.57696"
         inkscape:transform-center-x="176.60346"
         inkscape:tile-y0="140.02413"
         inkscape:tile-x0="36.17884"
         sodipodi:nodetypes="czczc"
         inkscape:connector-curvature="0"
         id="use5368"
         d="m 323.56516,734.90797 c 20.67357,-58.6832 27.34364,-60.53738 18.53787,-70.32482 -8.80578,-9.78743 18.82884,-47.32441 19.71062,-68.24244 6.43818,30.355 -16.64818,44.14739 -1.29604,52.99052 15.35217,8.84311 -3.62204,25.83565 -36.95245,85.57674 z"
         style="fill:#000000;fill-opacity:1;fill-rule:evenodd;stroke:#000000;stroke-width:0.44755509px;stroke-linecap:butt;stroke-linejoin:miter;stroke-opacity:1" />
      <path
         inkscape:transform-center-y="-134.57696"
         inkscape:transform-center-x="176.60346"
         inkscape:tile-y0="140.02413"
         inkscape:tile-x0="36.17884"
         sodipodi:nodetypes="czczc"
         inkscape:connector-curvature="0"
         id="use5370"
         d="m 234.74465,713.17615 c 37.79585,-49.42255 44.71243,-49.12482 39.36214,-61.15436 -5.35031,-12.02953 32.53134,-39.18975 39.83398,-58.8115 -3.25713,30.85883 -29.47565,36.8421 -17.60757,49.99648 11.86811,13.15438 -11.42843,23.45189 -61.58855,69.96938 z"
         style="fill:#000000;fill-opacity:1;fill-rule:evenodd;stroke:#000000;stroke-width:0.44755509px;stroke-linecap:butt;stroke-linejoin:miter;stroke-opacity:1" />
      <path
         inkscape:transform-center-y="-134.57696"
         inkscape:transform-center-x="176.60346"
         inkscape:tile-y0="140.02413"
         inkscape:tile-x0="36.17884"
         sodipodi:nodetypes="czczc"
         inkscape:connector-curvature="0"
         id="use5372"
         d="m 156.98684,665.06093 c 51.21839,-35.32408 57.70445,-32.90358 56.33335,-45.99768 -1.37112,-13.09411 43.04944,-27.21894 56.05812,-43.62369 -12.63362,28.34198 -39.41784,25.93044 -32.19556,42.10844 7.22232,16.17801 -18.11611,18.7725 -80.19591,47.51293 z"
         style="fill:#000000;fill-opacity:1;fill-rule:evenodd;stroke:#000000;stroke-width:0.44755509px;stroke-linecap:butt;stroke-linejoin:miter;stroke-opacity:1" />
      <path
         inkscape:transform-center-y="-134.57696"
         inkscape:transform-center-x="176.60346"
         inkscape:tile-y0="140.02413"
         inkscape:tile-x0="36.17884"
         sodipodi:nodetypes="czczc"
         inkscape:connector-curvature="0"
         id="use5374"
         d="m 97.903189,595.27214 c 59.627321,-17.76784 65.047961,-13.46151 67.790261,-26.33843 2.74229,-12.87694 49.35357,-12.58374 66.79491,-24.16568 -20.77344,23.05082 -45.50155,12.48053 -43.63203,30.09853 1.86956,17.61802 -23.03046,12.25552 -90.953141,20.40558 z"
         style="fill:#000000;fill-opacity:1;fill-rule:evenodd;stroke:#000000;stroke-width:0.44755509px;stroke-linecap:butt;stroke-linejoin:miter;stroke-opacity:1" />
      <path
         inkscape:transform-center-y="-134.57696"
         inkscape:transform-center-x="176.60346"
         inkscape:tile-y0="140.02413"
         inkscape:tile-x0="36.17884"
         sodipodi:nodetypes="czczc"
         inkscape:connector-curvature="0"
         id="use5376"
         d="m 63.277214,510.64121 c 62.199526,1.52764 66.024116,7.29827 72.611396,-4.10099 6.58726,-11.39928 50.82662,3.28324 70.99333,-2.34217 -26.87981,15.50329 -47.13123,-2.19106 -50.79747,15.14237 -3.66622,17.33346 -25.69044,4.53889 -92.807256,-8.69921 z"
         style="fill:#000000;fill-opacity:1;fill-rule:evenodd;stroke:#000000;stroke-width:0.44755509px;stroke-linecap:butt;stroke-linejoin:miter;stroke-opacity:1" />
      <path
         inkscape:transform-center-y="-134.57696"
         inkscape:transform-center-x="176.60346"
         inkscape:tile-y0="140.02413"
         inkscape:tile-x0="36.17884"
         sodipodi:nodetypes="czczc"
         inkscape:connector-curvature="0"
         id="use5378"
         d="m 56.498354,419.45241 c 58.683196,20.67357 60.537376,27.34364 70.324816,18.53787 9.78743,-8.80578 47.32441,18.82884 68.24244,19.71062 -30.355,6.43818 -44.14739,-16.64818 -52.99052,-1.29604 -8.84311,15.35217 -25.83565,-3.62204 -85.576736,-36.95245 z"
         style="fill:#000000;fill-opacity:1;fill-rule:evenodd;stroke:#000000;stroke-width:0.44755509px;stroke-linecap:butt;stroke-linejoin:miter;stroke-opacity:1" />
      <path
         inkscape:transform-center-y="-134.57696"
         inkscape:transform-center-x="176.60346"
         inkscape:tile-y0="140.02413"
         inkscape:tile-x0="36.17884"
         sodipodi:nodetypes="czczc"
         inkscape:connector-curvature="0"
         id="use5380"
         d="m 78.230166,330.6319 c 49.422554,37.79585 49.124824,44.71243 61.154354,39.36214 12.02954,-5.35031 39.18976,32.53134 58.81151,39.83398 -30.85883,-3.25713 -36.8421,-29.47565 -49.99648,-17.60757 -13.15439,11.86811 -23.4519,-11.42843 -69.969384,-61.58855 z"
         style="fill:#000000;fill-opacity:1;fill-rule:evenodd;stroke:#000000;stroke-width:0.44755509px;stroke-linecap:butt;stroke-linejoin:miter;stroke-opacity:1" />
    </g>
    <g
       style="font-style:normal;font-variant:normal;font-weight:normal;font-stretch:normal;font-size:30px;line-height:125%;font-family:sans-serif;-inkscape-font-specification:'sans-serif, Normal';text-align:center;letter-spacing:0px;word-spacing:0px;writing-mode:lr-tb;text-anchor:middle;fill:#000000;fill-opacity:1;stroke:none;stroke-width:1px;stroke-linecap:butt;stroke-linejoin:miter;stroke-opacity:1"
       id="flowRoot5452"
       transform="matrix(1.9806125,0.76890949,-0.84463739,1.8030361,20.413858,-645.98482)">
      <path
         d="m 370.4502,474.31915 -31.72852,0 0,-4.30664 q 0,-7.20704 2.90039,-12.74415 2.90039,-5.625 12.2168,-14.23828 l 5.625,-5.09765 q 5.00976,-4.57032 7.29492,-8.61328 2.37305,-4.04297 2.37305,-8.08594 0,-6.15235 -4.21875,-9.58008 -4.21875,-3.51562 -11.77735,-3.51562 -7.11914,0 -15.38086,2.98828 -8.26172,2.90039 -17.22656,8.70117 l 0,-27.59766 q 10.63477,-3.6914 19.42383,-5.44922 8.78906,-1.75781 16.96289,-1.75781 21.44531,0 32.69531,8.78906 11.25,8.70118 11.25,25.48828 0,8.61329 -3.42773,15.46875 -3.42774,6.76758 -11.68946,14.58985 l -5.625,5.00976 q -5.97656,5.44922 -7.82226,8.78907 -1.8457,3.25195 -1.8457,7.20703 l 0,3.95508 z m -31.72852,13.00781 31.72852,0 0,31.28906 -31.72852,0 0,-31.28906 z"
         style="font-style:normal;font-variant:normal;font-weight:bold;font-stretch:normal;font-size:180px;line-height:125%;font-family:sans-serif;-inkscape-font-specification:'sans-serif, Bold';text-align:center;writing-mode:lr-tb;text-anchor:middle"
         id="path5470"
         inkscape:connector-curvature="0" />
    </g>
    <g
       style="font-style:normal;font-variant:normal;font-weight:normal;font-stretch:normal;font-size:30px;line-height:125%;font-family:sans-serif;-inkscape-font-specification:'sans-serif, Normal';text-align:center;letter-spacing:0px;word-spacing:0px;writing-mode:lr-tb;text-anchor:middle;fill:#000000;fill-opacity:1;stroke:none;stroke-width:1px;stroke-linecap:butt;stroke-linejoin:miter;stroke-opacity:1"
       id="flowRoot5460" />
    <flowRoot
       xml:space="preserve"
       id="flowRoot5472"
       style="font-style:normal;font-variant:normal;font-weight:normal;font-stretch:normal;font-size:30px;line-height:125%;font-family:sans-serif;-inkscape-font-specification:'sans-serif, Normal';text-align:center;letter-spacing:0px;word-spacing:0px;writing-mode:lr-tb;text-anchor:middle;fill:#000000;fill-opacity:1;stroke:none;stroke-width:1px;stroke-linecap:butt;stroke-linejoin:miter;stroke-opacity:1"><flowRegion
         id="flowRegion5474"><rect
           id="rect5476"
           width="90.294609"
           height="159.6877"
           x="302.65417"
           y="384.34927" /></flowRegion><flowPara
         id="flowPara5478" /></flowRoot>  </g>
</svg>
