<?xml version="1.0" encoding="UTF-8" standalone="no"?>
<!-- Created with Inkscape (http://www.inkscape.org/) -->

<svg
   xmlns:dc="http://purl.org/dc/elements/1.1/"
   xmlns:cc="http://creativecommons.org/ns#"
   xmlns:rdf="http://www.w3.org/1999/02/22-rdf-syntax-ns#"
   xmlns:svg="http://www.w3.org/2000/svg"
   xmlns="http://www.w3.org/2000/svg"
   xmlns:sodipodi="http://sodipodi.sourceforge.net/DTD/sodipodi-0.dtd"
   xmlns:inkscape="http://www.inkscape.org/namespaces/inkscape"
   width="142.8867mm"
   height="106.28511mm"
   viewBox="0 0 506.29147 376.60078"
   id="svg4886"
   version="1.1"
   inkscape:version="0.91 r13725"
   sodipodi:docname="IconClot.svg">
  <defs
     id="defs4888" />
  <sodipodi:namedview
     id="base"
     pagecolor="#ffffff"
     bordercolor="#666666"
     borderopacity="1.0"
     inkscape:pageopacity="0.0"
     inkscape:pageshadow="2"
     inkscape:zoom="0.95686772"
     inkscape:cx="315.20087"
     inkscape:cy="-21.972972"
     inkscape:document-units="px"
     inkscape:current-layer="layer1"
     showgrid="false"
     fit-margin-top="0"
     fit-margin-left="0"
     fit-margin-right="0"
     fit-margin-bottom="0"
     inkscape:window-width="1080"
     inkscape:window-height="1857"
     inkscape:window-x="-8"
     inkscape:window-y="-8"
     inkscape:window-maximized="1" />
  <metadata
     id="metadata4891">
    <rdf:RDF>
      <cc:Work
         rdf:about="">
        <dc:format>image/svg+xml</dc:format>
        <dc:type
           rdf:resource="http://purl.org/dc/dcmitype/StillImage" />
        <dc:title></dc:title>
      </cc:Work>
    </rdf:RDF>
  </metadata>
  <g
     inkscape:label="Layer 1"
     inkscape:groupmode="layer"
     id="layer1"
     transform="translate(-56.846378,-127.60736)">
    <path
       style="fill:#000000;fill-opacity:1;fill-rule:evenodd;stroke:#000000;stroke-width:1px;stroke-linecap:butt;stroke-linejoin:miter;stroke-opacity:1"
       d="m 150.49102,291.54647 c 21.2154,-49.63911 -2.10857,-91.95704 -4.18031,-136.90503 33.49424,4.96717 67.67054,-6.96815 94.05689,-24.03676 33.06534,-0.64824 15.10989,31.85548 -2.09015,35.53261 13.61443,29.93957 65.48536,12.87701 95.10196,10.45076 31.06359,28.47254 -7.40729,33.21024 -27.17199,35.5326 -29.93291,0.0307 -39.58745,40.99738 -6.27046,51.20875 21.6484,6.89052 46.39934,68.83169 5.22539,55.38906 -28.66281,11.56763 -32.25644,-37.9583 -57.47921,-14.63107 -10.90516,41.80135 38.27537,91.39825 -7.31554,125.40918 -36.72663,20.69102 -44.68218,-11.15715 -42.84814,-39.71291 -2.5415,-15.90455 27.69992,-29.49279 8.36062,-44.93829 -49.71171,-27.45182 -41.61279,62.71314 -91.96674,47.02845 -26.837311,4.35218 -39.111873,-39.89721 -6.27046,-38.66783 22.98693,5.26116 36.47894,-21.95201 4.18031,-25.08184 -26.255372,-0.3778 -64.070301,-20.24609 -52.253828,-48.07352 28.714193,5.30632 45.086828,17.01674 81.515968,10.45076 l 5.22538,0 4.18031,1.04508 0,0 z"
       id="path4896"
       inkscape:connector-curvature="0" />
    <path
       style="fill:#000000;fill-opacity:1;fill-rule:evenodd;stroke:#000000;stroke-width:1px;stroke-linecap:butt;stroke-linejoin:miter;stroke-opacity:1"
       d="m 473.41967,372.01736 c -13.8019,-31.88358 -71.90631,-57.12955 -61.65952,-90.92166 46.00877,14.59505 53.30449,-84.41912 3.13523,-62.70459 -25.06975,16.2498 -75.42799,23.87737 -60.61444,-20.90153 6.77655,-16.91382 42.0612,-4.95926 31.3523,-36.57768 -11.76557,-10.81273 20.97257,-54.09565 31.35229,-19.85645 9.52103,57.7822 46.47427,-38.82247 73.15536,0 16.47191,18.91667 2.67252,38.64862 -3.13523,52.25383 31.04371,-4.36442 90.73183,4.71479 72.11028,47.02844 -28.52981,16.00908 -70.75482,11.54908 -33.44245,53.2989 7.85985,19.60635 63.36903,50.44074 17.7663,55.38906 -35.07149,5.23085 0.11084,50.00303 -2.09015,74.20043 24.34594,45.42615 -21.75512,87.7555 -66.8849,79.42582 -13.56051,-19.98409 25.08542,-60.10627 -14.63107,-42.84814 -37.43285,7.58963 -88.18482,37.90115 -117.04857,13.586 -10.83857,-27.45245 62.79771,-13.30312 39.71291,-45.98337 -28.30789,3.7717 -75.40839,-14.22827 -66.8849,-41.80306 19.63052,-0.67727 80.38977,10.11828 53.2989,-22.99169 -9.72531,-17.37581 -26.9935,-27.57377 -35.5326,-43.89321 38.43575,0.74293 77.70461,21.60962 90.92166,52.25383 27.34833,-3.21485 42.46903,43.77725 49.1186,1.04507 z"
       id="path4898"
       inkscape:connector-curvature="0" />
  </g>
</svg>
